<?xml version="1.0" encoding="UTF-8"?>
<svg id="Calque_2" data-name="Calque 2" xmlns="http://www.w3.org/2000/svg" viewBox="0 0 613.63 63.91">
  <defs>
    <style>
      .cls-1 {
        fill: magenta;
      }
    </style>
  </defs>
  <g id="Calque_1-2" data-name="Calque 1">
    <g>
      <path class="cls-1" d="M0,1.84h51.44v9.7H10.29v19.25h41.15v9.7H10.29v20.14H0V1.84Z"/>
      <path class="cls-1" d="M64.96,53.87c1.32-1.32,2.87-2.28,4.19-3.09.81-.52,2.5-1.32,2.5-1.84s-1.69-1.25-2.5-1.76c-1.32-.81-2.87-1.76-4.19-3.09-1.91-1.91-2.87-4.26-2.87-6.83s.96-4.85,2.87-6.76c1.32-1.32,2.87-2.28,4.19-3.09.81-.52,2.5-1.25,2.5-1.76s-1.69-1.32-2.5-1.84c-1.32-.81-2.87-1.76-4.19-3.09-1.91-1.91-2.87-4.19-2.87-6.76s.96-4.85,2.87-6.76c1.32-1.4,2.87-2.28,4.19-3.16.81-.52,2.28-1.4,2.5-1.76h9.48c0,2.57-.95,4.85-2.87,6.76-1.25,1.4-2.79,2.28-4.11,3.16-.88.44-2.5,1.25-2.5,1.76s1.62,1.25,2.5,1.76c1.32.81,2.87,1.76,4.11,3.09,1.91,1.98,2.87,4.26,2.87,6.83s-.95,4.85-2.87,6.76c-1.25,1.32-2.79,2.28-4.11,3.09-.88.51-2.5,1.25-2.5,1.76,0,.59,1.62,1.32,2.5,1.84,1.32.81,2.87,1.76,4.11,3.09,1.91,1.91,2.87,4.19,2.87,6.76s-.95,4.85-2.87,6.83c-1.25,1.32-2.79,2.2-4.11,3.09l-2.5,1.76h-9.55c0-2.57.96-4.85,2.87-6.76Z"/>
      <path class="cls-1" d="M92.15,43.65h10.29c0,5.22,7.42,8.89,18,8.89s18.01-3.67,18.01-8.89c0-16.54-44.83,2.2-44.83-25.65C93.62,7.64,104.72.37,120.45.37c14.85,0,25.35,7.28,25.35,17.64h-10.29c0-4.7-6.25-8.08-15.07-8.08-9.7,0-16.53,3.38-16.53,8.08,0,16.24,44.83-1.91,44.83,25.65,0,10.8-11.68,18.44-28.29,18.44s-28.29-7.64-28.29-18.44Z"/>
      <path class="cls-1" d="M159.76,1.84h10.29v24.54h32.48V1.84h10.29v58.79h-10.29v-24.55h-32.48v24.55h-10.29V1.84Z"/>
      <path class="cls-1" d="M325.63,31.23c0-18.3,12.2-31.23,29.39-31.23s28.88,9.92,28.88,23.88h-10.66c0-8.23-7.57-14.11-18.23-14.11s-19.03,8.89-19.03,21.46,7.86,21.46,19.03,21.46,18.23-5.88,18.23-14.11h10.66c0,13.96-11.98,23.88-28.88,23.88s-29.39-12.93-29.39-31.23Z"/>
      <path class="cls-1" d="M394.56,1.84h10.29v24.54h32.48V1.84h10.29v58.79h-10.29v-24.55h-32.48v24.55h-10.29V1.84Z"/>
      <path class="cls-1" d="M465.18,53.87c1.32-1.32,2.87-2.28,4.19-3.09.81-.52,2.5-1.32,2.5-1.84s-1.69-1.25-2.5-1.76c-1.32-.81-2.87-1.76-4.19-3.09-1.91-1.91-2.87-4.26-2.87-6.83s.95-4.85,2.87-6.76c1.32-1.32,2.87-2.28,4.19-3.09.81-.52,2.5-1.25,2.5-1.76s-1.69-1.32-2.5-1.84c-1.32-.81-2.87-1.76-4.19-3.09-1.91-1.91-2.87-4.19-2.87-6.76s.95-4.85,2.87-6.76c1.32-1.4,2.87-2.28,4.19-3.16.81-.52,2.28-1.4,2.5-1.76h9.48c0,2.57-.95,4.85-2.87,6.76-1.25,1.4-2.79,2.28-4.12,3.16-.88.44-2.5,1.25-2.5,1.76s1.62,1.25,2.5,1.76c1.32.81,2.87,1.76,4.12,3.09,1.91,1.98,2.87,4.26,2.87,6.83s-.95,4.85-2.87,6.76c-1.25,1.32-2.79,2.28-4.12,3.09-.88.51-2.5,1.25-2.5,1.76,0,.59,1.62,1.32,2.5,1.84,1.32.81,2.87,1.76,4.12,3.09,1.91,1.91,2.87,4.19,2.87,6.76s-.95,4.85-2.87,6.83c-1.25,1.32-2.79,2.2-4.12,3.09l-2.5,1.76h-9.55c0-2.57.95-4.85,2.87-6.76Z"/>
      <path class="cls-1" d="M496.05,1.84h33.07c12.93,0,22.05,7.42,22.05,17.93s-8.67,18.52-21.02,18.52h-23.81v22.34h-10.29V1.84ZM529.85,28.51c6.39,0,10.95-3.6,10.95-8.75,0-4.78-4.85-8.16-11.68-8.16h-22.78v16.9h23.52Z"/>
      <path class="cls-1" d="M557.04,43.65h10.29c0,5.22,7.42,8.89,18.01,8.89s18-3.67,18-8.89c0-16.54-44.83,2.2-44.83-25.65,0-10.36,11.1-17.64,26.82-17.64,14.84,0,25.35,7.28,25.35,17.64h-10.29c0-4.7-6.25-8.08-15.06-8.08-9.7,0-16.53,3.38-16.53,8.08,0,16.24,44.83-1.91,44.83,25.65,0,10.8-11.68,18.44-28.29,18.44s-28.29-7.64-28.29-18.44Z"/>
      <path class="cls-1" d="M280.4,47.96l.03.03-.77.77c-3.74,3.74-7.23,5.28-11.24,5.28-6.55,0-8.94-4.18-8.94-7.75,0-4.69,2.73-6.98,8.26-10.48,0,0,3.76-2.26,4.22-2.58.45-.32,4.04-2.36,4.04-2.36,5.45-3.57,10.14-7.91,10.14-15.75s-6.22-14.82-16.27-14.82-16.26,6.65-16.26,14.82c0,6.13,2.81,9.79,7.15,13.97l.26.25-1.88,1.11c-6.3,3.83-10.22,8.94-10.22,16.69,0,9.11,5.96,16.77,18.4,16.77,8.6,0,13.71-4.08,18.47-8.94l.94-.93,8.86,8.51h12.94v-.17l-15.41-14.9v-11.84h-.34l-5.88,5.79M269.87,9.76c4,0,6.05,2.72,6.05,5.79,0,3.4-1.62,5.62-5.79,8.17l-.94.6c-3.41-3.41-5.54-5.62-5.54-8.77s2.31-5.79,6.22-5.79Z"/>
    </g>
  </g>
</svg>